<svg width="896" height="896" viewBox="0 0 896 896" fill="none" xmlns="http://www.w3.org/2000/svg">
<path d="M448 0C200.6 0 0 200.6 0 448C0 695.4 200.6 896 448 896C695.4 896 896 695.4 896 448C896 200.6 695.4 0 448 0ZM615 633.6C574.4 671 519 693 452.9 693C357.2 693 274.4 638.1 234.1 558.1C217.5 525 208 487.6 208 448C208 408.4 217.5 371 234.1 337.9C274.4 257.8 357.2 202.9 452.9 202.9C518.9 202.9 574.3 227.2 616.8 266.7L546.6 337C521.2 312.7 488.9 300.4 453 300.4C389.2 300.4 335.2 343.5 315.9 401.4C311 416.1 308.2 431.8 308.2 448C308.2 464.2 311 479.9 315.9 494.6C335.2 552.5 389.2 595.6 452.9 595.6C485.9 595.6 513.9 586.9 535.8 572.2C561.8 554.8 579 528.9 584.7 498.2H452.9V403.4H683.6C686.5 419.5 688 436.2 688 453.5C688 528.2 661.3 590.9 615 633.6V633.6Z" fill="white"/>
</svg>
